<mxfile host="drawio-plugin" modified="2022-10-29T10:59:03.064Z" agent="5.0 (Windows NT 6.2; Win64; x64) AppleWebKit/537.36 (KHTML, like Gecko) Chrome/98.0.4758.102 Safari/537.36" etag="ZQtcyTXnTTH1fRiM1UQ3" version="15.5.4" type="embed"><diagram id="23iRSUPoRavnBvh4doch" name="Page-1"><mxGraphModel dx="1021" dy="460" grid="1" gridSize="10" guides="1" tooltips="1" connect="1" arrows="1" fold="1" page="1" pageScale="1" pageWidth="827" pageHeight="1169" math="0" shadow="0"><root><mxCell id="0"/><mxCell id="1" parent="0"/><mxCell id="4" style="edgeStyle=orthogonalEdgeStyle;rounded=0;orthogonalLoop=1;jettySize=auto;html=1;entryX=0;entryY=0.5;entryDx=0;entryDy=0;shape=link;" edge="1" parent="1" source="2" target="3"><mxGeometry relative="1" as="geometry"/></mxCell><mxCell id="19" style="edgeStyle=orthogonalEdgeStyle;rounded=0;orthogonalLoop=1;jettySize=auto;html=1;entryX=0;entryY=0.5;entryDx=0;entryDy=0;" edge="1" parent="1" source="2" target="15"><mxGeometry relative="1" as="geometry"/></mxCell><mxCell id="2" value="注册中心" style="rounded=0;whiteSpace=wrap;html=1;" vertex="1" parent="1"><mxGeometry x="80" y="40" width="120" height="40" as="geometry"/></mxCell><mxCell id="6" style="edgeStyle=orthogonalEdgeStyle;shape=link;rounded=0;orthogonalLoop=1;jettySize=auto;html=1;" edge="1" parent="1" source="3" target="5"><mxGeometry relative="1" as="geometry"/></mxCell><mxCell id="18" style="edgeStyle=orthogonalEdgeStyle;rounded=0;orthogonalLoop=1;jettySize=auto;html=1;" edge="1" parent="1" source="3" target="15"><mxGeometry relative="1" as="geometry"/></mxCell><mxCell id="3" value="注册中心" style="rounded=0;whiteSpace=wrap;html=1;" vertex="1" parent="1"><mxGeometry x="310" y="40" width="120" height="40" as="geometry"/></mxCell><mxCell id="17" style="edgeStyle=orthogonalEdgeStyle;rounded=0;orthogonalLoop=1;jettySize=auto;html=1;entryX=1;entryY=0.5;entryDx=0;entryDy=0;" edge="1" parent="1" source="5" target="15"><mxGeometry relative="1" as="geometry"/></mxCell><mxCell id="5" value="注册中心" style="rounded=0;whiteSpace=wrap;html=1;" vertex="1" parent="1"><mxGeometry x="520" y="40" width="120" height="40" as="geometry"/></mxCell><mxCell id="15" value="&lt;span&gt;0-病毒传播机制&lt;br&gt;1-获取所有注册中心&lt;/span&gt;&lt;br&gt;&lt;span&gt;2-注册互相获取状态&lt;/span&gt;&lt;br&gt;&lt;span&gt;3-获取状态失败后移除&lt;/span&gt;" style="whiteSpace=wrap;html=1;align=center;" vertex="1" parent="1"><mxGeometry x="225" y="180" width="290" height="120" as="geometry"/></mxCell></root></mxGraphModel></diagram></mxfile>